HIERARCHY
ROOT Hips
{
	OFFSET 0.000000 0.000000 0.000000
	CHANNELS 6 Xposition Yposition Zposition Xrotation Yrotation Zrotation
	JOINT LeftUpLeg_virtual
	{
		OFFSET 0.000000 0.000000 0.000000
		CHANNELS 3 Xrotation Yrotation Zrotation
		JOINT LeftUpLeg
		{
			OFFSET 11.394100 -6.187798 -0.413800
			CHANNELS 3 Xrotation Yrotation Zrotation
			JOINT LeftLeg
			{
				OFFSET 0.430247 -32.302673 3.732800
				CHANNELS 3 Xrotation Yrotation Zrotation
				JOINT LeftFoot
				{
					OFFSET -0.430247 -48.264931 -6.423300
					CHANNELS 3 Xrotation Yrotation Zrotation
					JOINT LeftToeBase
					{
						OFFSET 4.230900 -16.068199 23.438400
						CHANNELS 3 Xrotation Yrotation Zrotation
						JOINT LeftToe_End
						{
							OFFSET 4.510700 0.695400 19.974600
							CHANNELS 3 Xrotation Yrotation Zrotation
							End Site
							{
								OFFSET 0 0 0
							}
						}
					}
				}
			}
		}
	}
	JOINT RightUpLeg_virtual
	{
		OFFSET 0.000000 0.000000 0.000000
		CHANNELS 3 Xrotation Yrotation Zrotation
		JOINT RightUpLeg
		{
			OFFSET -11.333700 -6.187798 -0.413800
			CHANNELS 3 Xrotation Yrotation Zrotation
			JOINT RightLeg
			{
				OFFSET -0.430392 -32.302628 3.733000
				CHANNELS 3 Xrotation Yrotation Zrotation
				JOINT RightFoot
				{
					OFFSET 0.430392 -48.264973 -6.423500
					CHANNELS 3 Xrotation Yrotation Zrotation
					JOINT RightToeBase
					{
						OFFSET -4.230900 -16.068199 23.438400
						CHANNELS 3 Xrotation Yrotation Zrotation
						JOINT RightToe_End
						{
							OFFSET -4.510700 0.695400 19.974600
							CHANNELS 3 Xrotation Yrotation Zrotation
							End Site
							{
								OFFSET 0 0 0
							}
						}
					}
				}
			}
		}
	}
	JOINT Spine_virtual
	{
		OFFSET 0.000000 0.000000 0.000000
		CHANNELS 3 Xrotation Yrotation Zrotation
		JOINT Spine
		{
			OFFSET -0.002400 12.777504 0.315300
			CHANNELS 3 Xrotation Yrotation Zrotation
			JOINT Spine1
			{
				OFFSET -0.002067 5.816869 0.032633
				CHANNELS 3 Xrotation Yrotation Zrotation
				JOINT Spine1_split
				{
					OFFSET -0.002067 5.816869 0.032633
					CHANNELS 3 Xrotation Yrotation Zrotation
					JOINT Spine2
					{
						OFFSET -0.002067 5.816869 0.032633
						CHANNELS 3 Xrotation Yrotation Zrotation
						JOINT Neck_virtual
						{
							OFFSET 0.000000 0.000000 0.000000
							CHANNELS 3 Xrotation Yrotation Zrotation
							JOINT Neck
							{
								OFFSET -0.003700 21.199493 -0.826900
								CHANNELS 3 Xrotation Yrotation Zrotation
								JOINT Head
								{
									OFFSET 0.000000 20.442200 4.834800
									CHANNELS 3 Xrotation Yrotation Zrotation
									JOINT HeadTop_End
									{
										OFFSET 0.000000 34.668396 4.968400
										CHANNELS 3 Xrotation Yrotation Zrotation
										End Site
										{
											OFFSET 0 0 0
										}
									}
								}
							}
						}
						JOINT LeftShoulder_virtual
						{
							OFFSET 0.000000 0.000000 0.000000
							CHANNELS 3 Xrotation Yrotation Zrotation
							JOINT LeftShoulder
							{
								OFFSET 3.288150 8.794197 -1.372250
								CHANNELS 3 Xrotation Yrotation Zrotation
								JOINT LeftShoulder_split
								{
									OFFSET 3.288150 8.794197 -1.372250
									CHANNELS 3 Xrotation Yrotation Zrotation
									JOINT LeftArm
									{
										OFFSET 11.953299 -2.279007 -0.146200
										CHANNELS 3 Xrotation Yrotation Zrotation
										JOINT LeftForeArm
										{
											OFFSET 18.448900 0.000000 0.000000
											CHANNELS 3 Xrotation Yrotation Zrotation
											JOINT LeftHand
											{
												OFFSET 29.527798 0.000000 0.000000
												CHANNELS 3 Xrotation Yrotation Zrotation
												End Site
												{
													OFFSET 0 0 0
												}
											}
										}
									}
								}
							}
						}
						JOINT RightShoulder_virtual
						{
							OFFSET 0.000000 0.000000 0.000000
							CHANNELS 3 Xrotation Yrotation Zrotation
							JOINT RightShoulder
							{
								OFFSET -3.249400 8.794197 -1.372250
								CHANNELS 3 Xrotation Yrotation Zrotation
								JOINT RightShoulder_split
								{
									OFFSET -3.249400 8.794197 -1.372250
									CHANNELS 3 Xrotation Yrotation Zrotation
									JOINT RightArm
									{
										OFFSET -11.953299 -2.279007 -0.146200
										CHANNELS 3 Xrotation Yrotation Zrotation
										JOINT RightForeArm
										{
											OFFSET -18.448900 0.000000 0.000000
											CHANNELS 3 Xrotation Yrotation Zrotation
											JOINT RightHand
											{
												OFFSET -29.527802 0.000000 0.000000
												CHANNELS 3 Xrotation Yrotation Zrotation
												End Site
												{
													OFFSET 0 0 0
												}
											}
										}
									}
								}
							}
						}
					}
				}
			}
		}
	}
}
MOTION
Frames: 6
Frame Time: 0.03333333
0.091375 82.212059 -0.156540 0.000000 0.000000 0.000000 11.687764 6.909611 -1.197335 -60.761718 1.547409 4.321709 70.767761 9.061965 -0.434558 -17.832383 5.717109 -5.978514 -4.401893 -0.071786 1.060802 0.000000 0.000000 0.000000 12.010473 6.239926 -1.116510 -58.346242 -12.186853 -7.541287 73.349907 -7.531362 -4.562125 -22.557384 -8.607128 3.586198 2.093580 1.360423 -0.371015 0.000000 0.000000 0.000000 12.065224 4.097486 -1.172116 8.975836 0.992252 1.316500 8.955255 1.872170 -0.409897 1.015148 -1.123186 0.422092 0.000000 0.000000 0.000000 9.420682 0.825492 0.090333 -10.287015 -1.378150 5.904683 -25.770346 1.211489 -7.461153 0.000000 0.000000 0.000000 9.470196 0.564926 -0.000558 3.424076 -24.643111 3.603566 -2.566261 0.147667 -3.367016 -62.878708 -24.564130 -64.957503 177.549156 -72.309389 175.981955 0.000000 0.000000 0.000000 8.496837 0.564147 0.186606 -0.001191 12.275263 11.027001 0.152586 7.512601 0.675422 -62.688897 31.702596 50.550196 -178.767197 69.576186 178.152343 0.000000 0.000000 0.000000 
0.092162 82.218132 -0.128620 0.000000 0.000000 0.000000 11.697757 6.907107 -1.207848 -60.770720 1.543210 4.335512 70.765930 9.069783 -0.441886 -17.833844 5.720400 -5.982048 -4.392463 -0.070305 1.054313 0.000000 0.000000 0.000000 12.021129 6.235190 -1.127025 -58.327630 -12.183234 -7.526355 73.346348 -7.532831 -4.562677 -22.558863 -8.606748 3.593251 2.079730 1.361741 -0.374961 0.000000 0.000000 0.000000 12.075786 4.092431 -1.184086 8.972973 0.996489 1.308310 8.951627 1.875057 -0.418240 1.024847 -1.104563 0.399251 0.000000 0.000000 0.000000 9.417058 0.829644 0.081432 -10.271803 -1.391862 5.926518 -25.763339 1.202008 -7.461105 0.000000 0.000000 0.000000 9.466938 0.570796 -0.002229 3.429004 -24.641314 3.611481 -2.534276 0.128322 -3.378096 -62.970874 -24.602738 -65.041316 177.573990 -72.201192 176.004740 0.000000 0.000000 0.000000 8.489696 0.565559 0.179747 -0.005005 12.259323 11.039584 0.133717 7.557079 0.694999 -62.743122 31.691422 50.610875 -178.769150 69.445907 178.138341 0.000000 0.000000 0.000000 
0.100881 82.224640 -0.101059 0.000000 0.000000 0.000000 11.713995 6.899675 -1.227231 -60.786949 1.532031 4.358484 70.776572 9.072727 -0.449631 -17.844347 5.721329 -5.983266 -4.383861 -0.068568 1.044165 0.000000 0.000000 0.000000 12.037751 6.230613 -1.148155 -58.303471 -12.191877 -7.511127 73.331739 -7.534979 -4.564595 -22.557449 -8.603395 3.603373 2.070682 1.363963 -0.385067 0.000000 0.000000 0.000000 12.090926 4.072195 -1.200959 8.978922 1.012401 1.295569 8.932342 1.893298 -0.428096 1.033155 -1.086655 0.383843 0.000000 0.000000 0.000000 9.398894 0.848212 0.067613 -10.260712 -1.416869 5.974133 -25.761495 1.171058 -7.452495 0.000000 0.000000 0.000000 9.443049 0.592008 -0.005665 3.432461 -24.636757 3.619783 -2.517394 0.115498 -3.385706 -63.073771 -24.687236 -65.159083 177.563198 -72.091581 175.988362 0.000000 0.000000 0.000000 8.468678 0.582159 0.168660 -0.010947 12.239159 11.079135 0.142949 7.575959 0.707569 -62.828526 31.642822 50.676612 -178.747007 69.297023 178.095912 0.000000 0.000000 0.000000 
0.117394 82.228676 -0.078857 0.000000 0.000000 0.000000 11.731015 6.889950 -1.248041 -60.805759 1.518587 4.381656 70.796079 9.070601 -0.456095 -17.859452 5.719044 -5.981124 -4.378640 -0.067656 1.035419 0.000000 0.000000 0.000000 12.055450 6.224510 -1.171621 -58.284204 -12.207406 -7.502877 73.311002 -7.536244 -4.567800 -22.550151 -8.599479 3.617553 2.066373 1.367300 -0.398178 0.000000 0.000000 0.000000 12.106410 4.041334 -1.215423 8.991065 1.035833 1.280450 8.902669 1.921672 -0.437348 1.030409 -1.065311 0.378935 0.000000 0.000000 0.000000 9.370283 0.877062 0.052296 -10.260566 -1.446244 6.035052 -25.774948 1.127805 -7.439997 0.000000 0.000000 0.000000 9.406846 0.621980 -0.012152 3.433935 -24.635222 3.624563 -2.520755 0.133058 -3.391575 -63.150467 -24.777671 -65.255969 177.525031 -72.043920 175.949361 0.000000 0.000000 0.000000 8.437873 0.609807 0.156602 -0.017685 12.216671 11.135674 0.169088 7.568152 0.716394 -62.912121 31.575753 50.714124 -178.717596 69.193074 178.046106 0.000000 0.000000 0.000000 
0.138274 82.230743 -0.061092 0.000000 0.000000 0.000000 11.743806 6.884709 -1.263799 -60.818436 1.510866 4.396731 70.813427 9.066138 -0.461226 -17.875008 5.715368 -5.973836 -4.377053 -0.068284 1.032241 0.000000 0.000000 0.000000 12.069307 6.220485 -1.188975 -58.273009 -12.222092 -7.504356 73.291359 -7.534752 -4.573343 -22.536984 -8.598234 3.638166 2.059957 1.370438 -0.409192 0.000000 0.000000 0.000000 12.120105 4.013948 -1.223077 9.006637 1.059240 1.264222 8.869032 1.951995 -0.445304 1.027738 -1.043985 0.383971 0.000000 0.000000 0.000000 9.337512 0.907464 0.039089 -10.277219 -1.473235 6.092877 -25.808302 1.088710 -7.428270 0.000000 0.000000 0.000000 9.367818 0.651476 -0.021176 3.434631 -24.640264 3.625587 -2.535938 0.179231 -3.404254 -63.178826 -24.852582 -65.294853 177.481578 -72.078857 175.914937 0.000000 0.000000 0.000000 8.403967 0.641036 0.146034 -0.023275 12.196080 11.193305 0.202075 7.547286 0.713436 -62.976257 31.515524 50.714629 -178.695302 69.169312 178.008691 0.000000 0.000000 0.000000 
0.160225 82.232468 -0.049603 0.000000 0.000000 0.000000 11.752417 6.886308 -1.268705 -60.821093 1.515650 4.398023 70.817485 9.063285 -0.465211 -17.886595 5.713422 -5.962818 -4.377649 -0.069905 1.034633 0.000000 0.000000 0.000000 12.077855 6.220244 -1.195483 -58.270386 -12.229223 -7.514058 73.277534 -7.530109 -4.581964 -22.520151 -8.602423 3.664804 2.049430 1.372475 -0.414834 0.000000 0.000000 0.000000 12.129814 3.998178 -1.219467 9.021707 1.075356 1.249928 8.837558 1.975531 -0.451931 1.023539 -1.039031 0.388734 0.000000 0.000000 0.000000 9.309159 0.931101 0.029930 -10.309142 -1.491380 6.135392 -25.853571 1.070180 -7.418226 0.000000 0.000000 0.000000 9.334901 0.672232 -0.033176 3.434630 -24.647620 3.623023 -2.558323 0.230005 -3.425491 -63.163732 -24.885656 -65.270831 177.448424 -72.174623 175.899952 0.000000 0.000000 0.000000 8.375286 0.667145 0.137601 -0.025375 12.178757 11.236740 0.231050 7.524220 0.699016 -63.018488 31.490936 50.696061 -178.691068 69.215430 177.997435 0.000000 0.000000 0.000000 
